<svg width="16" height="16" viewBox="0 0 16 16" fill="none" xmlns="http://www.w3.org/2000/svg">
<path d="M16 8C16 12.4183 12.4183 16 8 16C3.58172 16 0 12.4183 0 8C0 3.58172 3.58172 0 8 0C12.4183 0 16 3.58172 16 8Z" fill="#2E2E2E"/>
<path fill-rule="evenodd" clip-rule="evenodd" d="M8 15.5C12.1421 15.5 15.5 12.1421 15.5 8C15.5 3.85786 12.1421 0.5 8 0.5C3.85786 0.5 0.5 3.85786 0.5 8C0.5 12.1421 3.85786 15.5 8 15.5ZM8 16C12.4183 16 16 12.4183 16 8C16 3.58172 12.4183 0 8 0C3.58172 0 0 3.58172 0 8C0 12.4183 3.58172 16 8 16Z" fill="#05090A"/>
<path d="M15 8C15 11.866 11.866 15 8 15C4.13401 15 1 11.866 1 8C1 4.13401 4.13401 1 8 1C11.866 1 15 4.13401 15 8Z" fill="url(#paint0_radial_12_164)"/>
<path fill-rule="evenodd" clip-rule="evenodd" d="M8 14.75C11.7279 14.75 14.75 11.7279 14.75 8C14.75 4.27208 11.7279 1.25 8 1.25C4.27208 1.25 1.25 4.27208 1.25 8C1.25 11.7279 4.27208 14.75 8 14.75ZM8 15C11.866 15 15 11.866 15 8C15 4.13401 11.866 1 8 1C4.13401 1 1 4.13401 1 8C1 11.866 4.13401 15 8 15Z" fill="white" fill-opacity="0.1"/>
<path d="M2.14404 11.8365C2.54459 12.4467 3.03792 12.9904 3.60397 13.4478L3.73463 12.9644C3.81914 12.9876 3.90812 13 4 13C4.09188 13 4.18086 12.9876 4.26537 12.9644L4.31291 13.1403C4.42599 13.5587 4.87316 13.8176 5.21754 13.5556C5.42591 13.3971 5.60074 13.1995 5.73207 12.974C5.86339 12.7485 5.94862 12.4996 5.9829 12.2415C6.01719 11.9833 5.99984 11.721 5.93187 11.4695L4.9623 11.7271C4.91444 11.558 4.82324 11.4072 4.70145 11.2873L4.85884 11.1313C5.16555 10.8272 5.16609 10.3155 4.76535 10.1509C4.5227 10.0513 4.26262 10 3.99998 10C3.73733 10 3.47726 10.0513 3.23461 10.1509C2.99196 10.2506 2.77148 10.3966 2.58576 10.5807L3.29853 11.2873C3.17676 11.4072 3.08556 11.558 3.0377 11.7271L2.82135 11.6696C2.56529 11.6016 2.29829 11.6725 2.14404 11.8365Z" fill="white"/>
<path fill-rule="evenodd" clip-rule="evenodd" d="M6.17905 10.7737C5.95461 10.3757 5.6243 10.0454 5.22635 9.82096L5.92532 7.72397C5.97442 7.57669 6.05546 7.44452 6.16524 7.33475L9.99998 3.50001C11.5 2.00002 13.5 2.50001 13.5 2.50001C13.5 2.50001 14 4.50002 12.5 6.00002L8.66526 9.83474C8.55549 9.94452 8.42333 10.0256 8.27605 10.0747L6.17905 10.7737ZM11 3.50001L8.49999 6.00001V5.91423C8.49999 5.64901 8.60535 5.39466 8.79288 5.20712L10.6464 3.35357C10.7769 3.2231 11 3.3155 11 3.50001Z" fill="white"/>
<defs>
<radialGradient id="paint0_radial_12_164" cx="0" cy="0" r="1" gradientUnits="userSpaceOnUse" gradientTransform="translate(4 2.5) rotate(61.8214) scale(15.8824)">
<stop stop-color="#3224A5"/>
<stop offset="1" stop-color="#473988"/>
</radialGradient>
</defs>
</svg>
