<svg width="80" height="16" viewBox="0 0 80 16" fill="none" xmlns="http://www.w3.org/2000/svg">
<path d="M51.725 12.07C51.265 12.07 50.9333 11.9683 50.73 11.765C50.53 11.5583 50.42 11.22 50.4 10.75C50.3967 10.5433 50.395 10.355 50.395 10.185C50.395 10.015 50.3967 9.84499 50.4 9.67499C50.4033 9.50166 50.4083 9.31166 50.415 9.10499H51.05C51.0367 9.40166 51.03 9.69666 51.03 9.98999C51.03 10.2833 51.0367 10.57 51.05 10.85C51.06 11.0767 51.1167 11.2417 51.22 11.345C51.3233 11.4483 51.49 11.5 51.72 11.5C51.94 11.5 52.0983 11.4483 52.195 11.345C52.2917 11.2417 52.3467 11.0767 52.36 10.85C52.37 10.6633 52.3767 10.4967 52.38 10.35C52.3833 10.2 52.3833 10.0483 52.38 9.89499C52.3767 9.73833 52.37 9.55499 52.36 9.34499C52.3533 9.09833 52.3183 8.89166 52.255 8.72499C52.195 8.55499 52.0683 8.44499 51.875 8.39499L51.355 8.25999C51.0983 8.19666 50.9017 8.10166 50.765 7.97499C50.6283 7.84499 50.5333 7.67499 50.48 7.46499C50.43 7.25499 50.4 6.99666 50.39 6.68999C50.3867 6.47333 50.385 6.23666 50.385 5.97999C50.3883 5.72333 50.3917 5.47499 50.395 5.23499C50.405 4.92499 50.4533 4.67499 50.54 4.48499C50.6267 4.29166 50.765 4.15166 50.955 4.06499C51.1483 3.97499 51.4033 3.92999 51.72 3.92999C52.16 3.92999 52.4783 4.03166 52.675 4.23499C52.8717 4.43833 52.9783 4.77499 52.995 5.24499C53.0017 5.42833 53.0033 5.65499 53 5.92499C53 6.19166 52.995 6.47499 52.985 6.77499H52.345C52.355 6.50166 52.36 6.22999 52.36 5.95999C52.3633 5.68666 52.36 5.41499 52.35 5.14499C52.3433 4.91833 52.2883 4.75333 52.185 4.64999C52.085 4.54666 51.9267 4.49499 51.71 4.49499C51.4833 4.49499 51.3217 4.54666 51.225 4.64999C51.1283 4.75333 51.0733 4.91833 51.06 5.14499C51.0467 5.39833 51.04 5.65499 51.04 5.91499C51.0433 6.17166 51.05 6.42999 51.06 6.68999C51.0667 6.98666 51.1017 7.20999 51.165 7.35999C51.2283 7.50999 51.36 7.60833 51.56 7.65499L52.05 7.77499C52.3133 7.83499 52.5133 7.93166 52.65 8.06499C52.79 8.19833 52.8867 8.37166 52.94 8.58499C52.9933 8.79499 53.0233 9.04833 53.03 9.34499C53.0367 9.55166 53.04 9.72666 53.04 9.86999C53.04 10.01 53.0383 10.1467 53.035 10.28C53.035 10.4133 53.0317 10.57 53.025 10.75C53.0083 11.22 52.9 11.5583 52.7 11.765C52.5 11.9683 52.175 12.07 51.725 12.07Z" fill="#2E2E2E"/>
<path d="M55.218 12.07C54.7546 12.07 54.4213 11.97 54.218 11.77C54.018 11.5667 53.913 11.2333 53.903 10.77C53.893 10.2933 53.8846 9.82666 53.878 9.36999C53.8746 8.90999 53.873 8.45333 53.873 7.99999C53.873 7.54666 53.8746 7.09166 53.878 6.63499C53.8846 6.17833 53.893 5.70999 53.903 5.22999C53.913 4.76666 54.018 4.43499 54.218 4.23499C54.4213 4.03166 54.7546 3.92999 55.218 3.92999C55.6846 3.92999 56.018 4.03166 56.218 4.23499C56.4213 4.43499 56.5263 4.76666 56.533 5.22999C56.543 5.70999 56.5496 6.17999 56.553 6.63999C56.5596 7.09666 56.563 7.55166 56.563 8.00499C56.563 8.45499 56.5596 8.90999 56.553 9.36999C56.5496 9.82666 56.543 10.2933 56.533 10.77C56.5263 11.2333 56.4213 11.5667 56.218 11.77C56.018 11.97 55.6846 12.07 55.218 12.07ZM55.218 11.5C55.4513 11.5 55.618 11.4533 55.718 11.36C55.818 11.2633 55.8696 11.1 55.873 10.87C55.8863 10.38 55.8946 9.89499 55.898 9.41499C55.9046 8.93166 55.908 8.45333 55.908 7.97999C55.908 7.50333 55.9046 7.02833 55.898 6.55499C55.8913 6.07833 55.883 5.60333 55.873 5.12999C55.8696 4.89999 55.8163 4.73666 55.713 4.63999C55.613 4.54333 55.448 4.49499 55.218 4.49499C54.9913 4.49499 54.828 4.54333 54.728 4.63999C54.628 4.73666 54.5746 4.89999 54.568 5.12999C54.5546 5.60333 54.5446 6.07833 54.538 6.55499C54.5313 7.02833 54.528 7.50333 54.528 7.97999C54.5313 8.45333 54.5363 8.93166 54.543 9.41499C54.5496 9.89499 54.558 10.38 54.568 10.87C54.5746 11.1 54.628 11.2633 54.728 11.36C54.828 11.4533 54.9913 11.5 55.218 11.5Z" fill="#2E2E2E"/>
<path d="M57.5417 12V3.99999H59.7967V4.59999H58.2017V7.67499H59.6967V8.26999H58.2017V12H57.5417Z" fill="#2E2E2E"/>
<path d="M61.1774 12V4.59999H60.1574V3.99999H62.8574V4.59999H61.8424V12H61.1774Z" fill="#2E2E2E"/>
<path d="M63.7802 12L63.2352 3.99999H63.9052L64.0802 7.00999L64.2952 11.4H64.5152L64.7252 7.00999L64.9952 4.04999H66.1402L66.4202 7.00999L66.6102 11.4H66.8302L67.0552 7.00999L67.2402 3.99999H67.9002L67.3452 12H66.1402L65.9152 9.37499L65.6902 4.63499H65.4402L65.2102 9.37499L64.9852 12H63.7802Z" fill="#2E2E2E"/>
<path d="M68.2181 12L69.0731 3.99999H70.3131L71.1631 12H70.4881L70.2781 9.67999H69.1031L68.8981 12H68.2181ZM69.1681 9.07999H70.2131L70.0581 7.32999L69.8331 4.59999H69.5531L69.3281 7.33499L69.1681 9.07999Z" fill="#2E2E2E"/>
<path d="M71.9167 12V3.99999H73.1317C73.5851 3.99999 73.9134 4.09999 74.1167 4.29999C74.3201 4.49999 74.4317 4.83166 74.4517 5.29499C74.4617 5.59166 74.4684 5.87333 74.4717 6.13999C74.4751 6.40333 74.4751 6.65999 74.4717 6.90999C74.4684 7.15666 74.4617 7.40333 74.4517 7.64999C74.4417 7.97333 74.3851 8.23166 74.2817 8.42499C74.1784 8.61499 74.0184 8.74999 73.8017 8.82999L74.6067 12H73.8967L73.1617 8.94499H72.5767V12H71.9167ZM72.5767 8.34499H73.1267C73.3534 8.34499 73.5167 8.29166 73.6167 8.18499C73.7201 8.07833 73.7767 7.90999 73.7867 7.67999C73.7967 7.41666 73.8034 7.14999 73.8067 6.87999C73.8101 6.60666 73.8101 6.33499 73.8067 6.06499C73.8034 5.79499 73.7967 5.52833 73.7867 5.26499C73.7767 5.03499 73.7217 4.86666 73.6217 4.75999C73.5217 4.65333 73.3584 4.59999 73.1317 4.59999H72.5767V8.34499Z" fill="#2E2E2E"/>
<path d="M75.4031 12V3.99999H77.6581V4.59999H76.0631V7.67499H77.5581V8.26999H76.0631V11.4H77.6581V12H75.4031Z" fill="#2E2E2E"/>
<path d="M3.27531 12V4.95999H2.12531V3.99999H5.51031V4.95999H4.36031V12H3.27531Z" fill="#3224A5"/>
<path d="M7.60874 12.085C7.00874 12.085 6.57541 11.9583 6.30874 11.705C6.04541 11.4483 5.90874 11.0233 5.89874 10.43C5.88874 10.03 5.88208 9.62666 5.87874 9.21999C5.87541 8.81333 5.87374 8.40666 5.87374 7.99999C5.87374 7.58999 5.87541 7.18333 5.87874 6.77999C5.88208 6.37333 5.88874 5.96833 5.89874 5.56499C5.90874 4.97499 6.04541 4.55333 6.30874 4.29999C6.57541 4.04333 7.00874 3.91499 7.60874 3.91499C8.20874 3.91499 8.63874 4.04333 8.89874 4.29999C9.16208 4.55333 9.30041 4.97499 9.31374 5.56499C9.32708 5.97166 9.33541 6.37833 9.33874 6.78499C9.34541 7.19166 9.34874 7.59833 9.34874 8.00499C9.34874 8.41166 9.34541 8.81833 9.33874 9.22499C9.33541 9.62833 9.32708 10.03 9.31374 10.43C9.30041 11.0233 9.16208 11.4483 8.89874 11.705C8.63874 11.9583 8.20874 12.085 7.60874 12.085ZM7.60874 11.19C7.82208 11.19 7.97874 11.145 8.07874 11.055C8.17874 10.9617 8.23041 10.8167 8.23374 10.62C8.25041 10.2067 8.26041 9.77833 8.26374 9.33499C8.27041 8.88833 8.27374 8.43833 8.27374 7.98499C8.27374 7.53166 8.27041 7.08499 8.26374 6.64499C8.25708 6.20499 8.24708 5.78166 8.23374 5.37499C8.23041 5.17833 8.17708 5.03499 8.07374 4.94499C7.97374 4.85166 7.81874 4.80499 7.60874 4.80499C7.39874 4.80499 7.24208 4.85166 7.13874 4.94499C7.03874 5.03499 6.98541 5.17833 6.97874 5.37499C6.96541 5.78166 6.95374 6.20499 6.94374 6.64499C6.93708 7.08499 6.93374 7.53166 6.93374 7.98499C6.93708 8.43833 6.94208 8.88833 6.94874 9.33499C6.95541 9.77833 6.96541 10.2067 6.97874 10.62C6.98541 10.8167 7.03874 10.9617 7.13874 11.055C7.24208 11.145 7.39874 11.19 7.60874 11.19Z" fill="#3224A5"/>
<path d="M10.2111 12V3.99999H11.7861C12.3828 3.99999 12.8144 4.12499 13.0811 4.37499C13.3511 4.62499 13.4961 5.03999 13.5161 5.61999C13.5261 5.86333 13.5311 6.08666 13.5311 6.28999C13.5344 6.48999 13.5344 6.68833 13.5311 6.88499C13.5311 7.07833 13.5261 7.28333 13.5161 7.49999C13.5061 7.87666 13.4411 8.18333 13.3211 8.41999C13.2044 8.65333 13.0228 8.82666 12.7761 8.93999L13.6511 12H12.5011L11.7561 9.11999H11.2911V12H10.2111ZM11.2911 8.16499H11.7811C11.9978 8.16499 12.1578 8.11499 12.2611 8.01499C12.3678 7.91166 12.4261 7.75833 12.4361 7.55499C12.4461 7.34166 12.4528 7.12333 12.4561 6.89999C12.4594 6.67333 12.4594 6.44833 12.4561 6.22499C12.4528 5.99833 12.4461 5.77833 12.4361 5.56499C12.4261 5.36166 12.3694 5.20999 12.2661 5.10999C12.1628 5.00999 12.0028 4.95999 11.7861 4.95999H11.2911V8.16499Z" fill="#3224A5"/>
<path d="M14.3322 12V3.99999H15.9072C16.5038 3.99999 16.9355 4.12499 17.2022 4.37499C17.4722 4.62499 17.6172 5.03999 17.6372 5.61999C17.6505 5.98333 17.6572 6.31333 17.6572 6.60999C17.6572 6.90666 17.6505 7.21833 17.6372 7.54499C17.6172 8.12166 17.4722 8.53666 17.2022 8.78999C16.9355 9.03999 16.5022 9.16499 15.9022 9.16499H15.4122V12H14.3322ZM15.4122 8.20499H15.9022C16.1188 8.20499 16.2788 8.15499 16.3822 8.05499C16.4888 7.95166 16.5472 7.79999 16.5572 7.59999C16.5672 7.38666 16.5738 7.16333 16.5772 6.92999C16.5805 6.69666 16.5805 6.46499 16.5772 6.23499C16.5738 6.00166 16.5672 5.77833 16.5572 5.56499C16.5472 5.36166 16.4905 5.20999 16.3872 5.10999C16.2838 5.00999 16.1238 4.95999 15.9072 4.95999H15.4122V8.20499Z" fill="#3224A5"/>
<path d="M18.3654 12V3.99999H21.2204V4.95999H19.4454V7.46999H21.1204V8.42999H19.4454V11.04H21.2204V12H18.3654Z" fill="#3224A5"/>
<path d="M21.9103 12V3.99999H23.5653C24.1686 3.99999 24.6053 4.13166 24.8753 4.39499C25.1453 4.65499 25.2853 5.08666 25.2953 5.68999C25.3053 6.23999 25.312 6.76166 25.3153 7.25499C25.3186 7.74833 25.3186 8.24333 25.3153 8.73999C25.312 9.23333 25.3053 9.75499 25.2953 10.305C25.2853 10.9083 25.1453 11.3417 24.8753 11.605C24.6053 11.8683 24.167 12 23.5603 12H21.9103ZM22.9903 11.04H23.5603C23.7803 11.04 23.9436 10.99 24.0503 10.89C24.157 10.7867 24.212 10.6317 24.2153 10.425C24.2253 10.0183 24.232 9.61333 24.2353 9.20999C24.2386 8.80333 24.2403 8.39833 24.2403 7.99499C24.2403 7.59166 24.2386 7.18833 24.2353 6.78499C24.232 6.37833 24.2253 5.97166 24.2153 5.56499C24.212 5.36166 24.157 5.20999 24.0503 5.10999C23.9436 5.00999 23.782 4.95999 23.5653 4.95999H22.9903V11.04Z" fill="#3224A5"/>
<path d="M27.8626 12.085C27.2626 12.085 26.8293 11.9583 26.5626 11.705C26.2993 11.4483 26.1626 11.0233 26.1526 10.43C26.1426 10.03 26.136 9.62666 26.1326 9.21999C26.1293 8.81333 26.1276 8.40666 26.1276 7.99999C26.1276 7.58999 26.1293 7.18333 26.1326 6.77999C26.136 6.37333 26.1426 5.96833 26.1526 5.56499C26.1626 4.97499 26.2993 4.55333 26.5626 4.29999C26.8293 4.04333 27.2626 3.91499 27.8626 3.91499C28.4626 3.91499 28.8926 4.04333 29.1526 4.29999C29.416 4.55333 29.5543 4.97499 29.5676 5.56499C29.581 5.97166 29.5893 6.37833 29.5926 6.78499C29.5993 7.19166 29.6026 7.59833 29.6026 8.00499C29.6026 8.41166 29.5993 8.81833 29.5926 9.22499C29.5893 9.62833 29.581 10.03 29.5676 10.43C29.5543 11.0233 29.416 11.4483 29.1526 11.705C28.8926 11.9583 28.4626 12.085 27.8626 12.085ZM27.8626 11.19C28.076 11.19 28.2326 11.145 28.3326 11.055C28.4326 10.9617 28.4843 10.8167 28.4876 10.62C28.5043 10.2067 28.5143 9.77833 28.5176 9.33499C28.5243 8.88833 28.5276 8.43833 28.5276 7.98499C28.5276 7.53166 28.5243 7.08499 28.5176 6.64499C28.511 6.20499 28.501 5.78166 28.4876 5.37499C28.4843 5.17833 28.431 5.03499 28.3276 4.94499C28.2276 4.85166 28.0726 4.80499 27.8626 4.80499C27.6526 4.80499 27.496 4.85166 27.3926 4.94499C27.2926 5.03499 27.2393 5.17833 27.2326 5.37499C27.2193 5.78166 27.2076 6.20499 27.1976 6.64499C27.191 7.08499 27.1876 7.53166 27.1876 7.98499C27.191 8.43833 27.196 8.88833 27.2026 9.33499C27.2093 9.77833 27.2193 10.2067 27.2326 10.62C27.2393 10.8167 27.2926 10.9617 27.3926 11.055C27.496 11.145 27.6526 11.19 27.8626 11.19Z" fill="#3224A5"/>
<path d="M48 8C48 12.4183 44.4183 16 40 16C35.5817 16 32 12.4183 32 8C32 3.58172 35.5817 0 40 0C44.4183 0 48 3.58172 48 8Z" fill="#2E2E2E"/>
<path fill-rule="evenodd" clip-rule="evenodd" d="M40 15.5C44.1421 15.5 47.5 12.1421 47.5 8C47.5 3.85786 44.1421 0.5 40 0.5C35.8579 0.5 32.5 3.85786 32.5 8C32.5 12.1421 35.8579 15.5 40 15.5ZM40 16C44.4183 16 48 12.4183 48 8C48 3.58172 44.4183 0 40 0C35.5817 0 32 3.58172 32 8C32 12.4183 35.5817 16 40 16Z" fill="#05090A"/>
<path d="M47 8C47 11.866 43.866 15 40 15C36.134 15 33 11.866 33 8C33 4.13401 36.134 1 40 1C43.866 1 47 4.13401 47 8Z" fill="url(#paint0_radial_14_250)"/>
<path fill-rule="evenodd" clip-rule="evenodd" d="M40 14.75C43.7279 14.75 46.75 11.7279 46.75 8C46.75 4.27208 43.7279 1.25 40 1.25C36.2721 1.25 33.25 4.27208 33.25 8C33.25 11.7279 36.2721 14.75 40 14.75ZM40 15C43.866 15 47 11.866 47 8C47 4.13401 43.866 1 40 1C36.134 1 33 4.13401 33 8C33 11.866 36.134 15 40 15Z" fill="white" fill-opacity="0.1"/>
<path d="M34.144 11.8365C34.5446 12.4467 35.0379 12.9904 35.604 13.4478L35.7346 12.9644C35.8191 12.9876 35.9081 13 36 13C36.0919 13 36.1809 12.9876 36.2654 12.9644L36.3129 13.1403C36.426 13.5587 36.8732 13.8176 37.2175 13.5556C37.4259 13.3971 37.6007 13.1995 37.7321 12.974C37.8634 12.7485 37.9486 12.4996 37.9829 12.2415C38.0172 11.9833 37.9998 11.721 37.9319 11.4695L36.9623 11.7271C36.9144 11.558 36.8232 11.4072 36.7014 11.2873L36.8588 11.1313C37.1656 10.8272 37.1661 10.3155 36.7653 10.1509C36.5227 10.0513 36.2626 10 36 10C35.7373 10 35.4773 10.0513 35.2346 10.1509C34.992 10.2506 34.7715 10.3966 34.5858 10.5807L35.2985 11.2873C35.1768 11.4072 35.0856 11.558 35.0377 11.7271L34.8213 11.6696C34.5653 11.6016 34.2983 11.6725 34.144 11.8365Z" fill="white"/>
<path fill-rule="evenodd" clip-rule="evenodd" d="M38.1791 10.7737C37.9546 10.3757 37.6243 10.0454 37.2263 9.82096L37.9253 7.72397C37.9744 7.57669 38.0555 7.44452 38.1652 7.33475L42 3.50001C43.5 2.00002 45.5 2.50001 45.5 2.50001C45.5 2.50001 46 4.50002 44.5 6.00002L40.6653 9.83474C40.5555 9.94452 40.4233 10.0256 40.276 10.0747L38.1791 10.7737ZM43 3.50001L40.5 6.00001V5.91423C40.5 5.64901 40.6053 5.39466 40.7929 5.20712L42.6464 3.35357C42.7769 3.2231 43 3.3155 43 3.50001Z" fill="white"/>
<defs>
<radialGradient id="paint0_radial_14_250" cx="0" cy="0" r="1" gradientUnits="userSpaceOnUse" gradientTransform="translate(36 2.5) rotate(61.8214) scale(15.8824)">
<stop stop-color="#3224A5"/>
<stop offset="1" stop-color="#473988"/>
</radialGradient>
</defs>
</svg>
